HIERARCHY
ROOT joint_0
{
	OFFSET 0.000000 0.000000 0.000000
	CHANNELS 6 Xposition Yposition Zposition Zrotation Yrotation Xrotation 
	JOINT joint_1
	{
		OFFSET 1.363060 -1.794630 0.839290
		CHANNELS 3 Zrotation Yrotation Xrotation
		JOINT joint_2
		{
			OFFSET 2.448110 -6.726130 0.000000
			CHANNELS 3 Zrotation Yrotation Xrotation
			JOINT joint_3
			{
				OFFSET 2.562200 -7.039590 0.000000
				CHANNELS 3 Zrotation Yrotation Xrotation
				JOINT joint_4
				{
					OFFSET 0.157640 -0.433110 2.322550
					CHANNELS 3 Zrotation Yrotation Xrotation
					End Site
					{
						OFFSET 0.000000 0.000000 0.000000
					}
				}
			}
		}
	}
	JOINT joint_5
	{
		OFFSET -1.305520 -1.794630 0.839290
		CHANNELS 3 Zrotation Yrotation Xrotation
		JOINT joint_6
		{
			OFFSET -2.542530 -6.985550 0.000000
			CHANNELS 3 Zrotation Yrotation Xrotation
			JOINT joint_7
			{
				OFFSET -2.568260 -7.056230 0.000000
				CHANNELS 3 Zrotation Yrotation Xrotation
				JOINT joint_8
				{
					OFFSET -0.164730 -0.452590 2.363150
					CHANNELS 3 Zrotation Yrotation Xrotation
					End Site
					{
						OFFSET 0.000000 0.000000 0.000000
					}
				}
			}
		}
	}
	JOINT joint_9
	{
		OFFSET 0.028270 2.035590 -0.193380
		CHANNELS 3 Zrotation Yrotation Xrotation
		JOINT joint_10
		{
			OFFSET 0.056720 2.048850 -0.042750
			CHANNELS 3 Zrotation Yrotation Xrotation
			JOINT joint_11
			{
				OFFSET -0.054170 1.746240 0.172020
				CHANNELS 3 Zrotation Yrotation Xrotation
				JOINT joint_12
				{
					OFFSET 0.104070 1.761360 -0.123970
					CHANNELS 3 Zrotation Yrotation Xrotation
					End Site
					{
						OFFSET 0.000000 0.000000 0.000000
					}
				}
			}
			JOINT joint_13
			{
				OFFSET 3.362410 1.200890 -0.311210
				CHANNELS 3 Zrotation Yrotation Xrotation
				JOINT joint_14
				{
					OFFSET 4.983000 -0.000000 -0.000000
					CHANNELS 3 Zrotation Yrotation Xrotation
					JOINT joint_15
					{
						OFFSET 3.483560 -0.000000 -0.000000
						CHANNELS 3 Zrotation Yrotation Xrotation
						JOINT joint_16
						{
							OFFSET 0.715260 -0.000000 -0.000000
							CHANNELS 3 Zrotation Yrotation Xrotation
							End Site
							{
								OFFSET 0.000000 0.000000 0.000000
							}
						}
					}
				}
			}
			JOINT joint_17
			{
				OFFSET -3.136600 1.374050 -0.404650
				CHANNELS 3 Zrotation Yrotation Xrotation
				JOINT joint_18
				{
					OFFSET -5.241900 -0.000000 -0.000000
					CHANNELS 3 Zrotation Yrotation Xrotation
					JOINT joint_19
					{
						OFFSET -3.444170 -0.000000 -0.000000
						CHANNELS 3 Zrotation Yrotation Xrotation
						JOINT joint_20
						{
							OFFSET -0.622530 -0.000000 -0.000000
							CHANNELS 3 Zrotation Yrotation Xrotation
							End Site
							{
								OFFSET 0.000000 0.000000 0.000000
							}
						}
					}
				}
			}
		}
	}
}
MOTION
Frames: 7
Frame Time: 0.031667
1.386107 16.969148 6.217893 3.605782 -14.852827 4.117599 -21.709058 -12.505913 4.452650 -8.840381 4.082924 8.897595 0.342300 16.193923 -27.984100 0.620839 -3.320257 -8.784292 30.978186 24.227914 -18.600039 -3.491006 -25.023795 26.552186 8.885540 -12.425820 -40.930718 -0.404117 -0.191715 2.217835 6.714762 8.318055 6.716443 -0.655458 -5.772163 -12.241556 6.262656 -2.527423 26.254728 3.415737 -9.369632 13.493096 -130.635892 3.092114 47.920566 27.975454 -40.780724 -10.491950 -1.690726 2.184489 22.480094 -7.249169 -0.115504 0.013932 114.783788 3.687132 27.746576 -23.825995 33.868518 4.123953 2.572668 0.518804 5.799772 7.282905 0.027012 -0.104667 
1.355198 16.966645 6.239659 3.593202 -14.895357 4.098287 -38.406768 -14.221364 -6.537882 6.130099 5.199747 23.850671 -9.690367 21.120921 -45.955804 1.628130 -2.968664 -8.190649 43.495847 33.138275 -11.756341 -0.320817 -11.818297 38.503877 12.012534 -12.643155 -56.839222 -1.111313 0.045944 2.017925 9.593027 -1.313800 -0.332919 9.249697 -5.371945 -5.623131 9.892253 -15.354781 29.588639 9.939520 -11.040263 18.323671 -148.379166 8.188880 -24.290736 42.052689 -49.851816 -31.355691 -10.887024 5.169802 17.851186 -7.234266 -0.148897 0.009041 141.308199 0.427768 19.653121 -32.839789 44.938728 -2.952806 0.639456 0.696595 7.502377 7.316473 0.020439 -0.062906 
1.322222 16.966972 6.255658 3.396454 -14.930556 4.149715 -51.753023 -12.573697 -0.221099 0.567850 5.071757 29.268481 3.745731 25.859194 -30.676555 2.326712 -3.372052 -9.750476 52.329887 36.061698 -7.347544 1.762296 -16.628700 39.010185 25.680856 -11.657956 -18.640250 -2.019906 0.561178 0.497814 21.068408 -0.894814 -8.783995 1.741821 -9.755407 -7.377147 6.335755 -4.105690 40.272083 13.322890 -10.628681 21.628229 -143.806874 0.159922 -33.189347 27.532732 -55.594448 -11.150361 -1.804871 3.504745 26.882667 -7.334413 -0.144906 -0.000093 107.990892 5.783336 -16.519157 -33.973866 57.992452 -20.003628 -2.571702 -10.435021 -20.960049 7.444029 0.012035 -0.034225 
1.289681 16.966863 6.272527 3.260391 -14.948604 4.183172 -52.637792 -28.347394 17.428814 -6.145156 11.164198 26.793051 3.828590 12.450707 -25.218146 2.268485 -3.332502 -9.833952 41.926809 39.226313 -44.444703 -3.808488 -28.626115 33.957081 8.479628 -13.351535 -31.806726 -1.249652 2.930685 -7.646586 6.351454 0.530112 14.052666 -5.256702 -7.779761 -11.214196 15.791669 -12.464717 34.049029 3.059862 -10.700351 17.367443 -122.905293 9.665290 -139.040781 33.891020 -63.181873 -7.332427 -3.582631 8.191786 23.062742 -7.378819 -0.133039 0.010789 74.181407 13.681803 16.840006 -34.865155 58.000546 -14.105784 -2.748298 -7.800202 -25.124538 7.484752 0.023565 -0.031355 
1.257683 16.966536 6.289941 3.165406 -14.945619 4.208039 -47.089407 -17.701694 6.794742 -4.881122 1.460101 2.299446 14.437710 20.639247 -23.827836 1.924558 -2.348844 -6.566241 22.621279 33.146034 -14.525794 -2.678381 -8.712977 28.059662 6.167797 -7.062253 5.449946 -0.246570 2.649269 -6.556268 -3.332891 2.614035 10.011491 5.926366 -8.250235 -16.952014 11.416213 -11.268762 46.641176 -7.668510 -9.740048 8.795767 -119.815971 6.895388 -76.338688 20.971592 -52.851126 -1.659376 1.851255 5.162458 52.860811 -7.375815 -0.130636 0.036199 176.184060 12.361947 29.264526 -33.243371 53.206163 -8.849559 -2.928604 -9.393032 17.743815 7.457997 0.041836 -0.003911 
1.226013 16.966427 6.306374 3.089686 -14.927149 4.238834 -57.064584 -14.218877 -2.214146 -7.321219 1.993760 20.875481 5.587250 25.110057 0.680198 2.914324 -2.567743 -7.055866 32.492248 41.466273 -10.299007 4.308102 -13.795020 30.006445 -7.660637 -12.363039 -10.916004 -0.522777 2.133079 -4.520585 8.029459 -4.307898 -4.177335 -2.508561 2.828669 -7.160518 22.350221 -20.689975 40.527703 -4.627473 -9.101830 10.674462 -85.406953 6.343775 -25.300014 22.819764 -61.197245 -12.285875 2.547769 9.296747 40.169558 -7.377456 -0.132411 0.037760 79.863264 9.527584 -34.326516 -6.784312 56.408664 20.066809 -3.378396 -7.773573 31.318080 7.476323 0.044437 0.029745 
1.194451 16.967080 6.319435 3.006682 -14.903812 4.286947 -83.030484 -14.639817 0.101414 -2.325921 12.639836 14.843260 -12.436356 23.559624 -13.959375 4.084328 -3.843781 -10.989614 44.392972 38.587260 -13.805536 2.084031 -25.451079 40.232106 -6.448880 -16.995164 -15.302822 -1.161703 2.138286 -4.394754 0.770810 4.793071 0.628008 -15.515748 -1.740728 -21.063494 19.649604 -8.285112 38.914917 1.981641 -8.374743 17.783709 -72.383510 8.336886 -32.916136 29.500734 -61.711818 -12.501617 -0.846763 7.929812 47.962647 -7.324553 -0.131346 0.050754 25.770980 10.509380 -40.047974 -6.739843 66.892994 29.599619 -2.777647 2.103924 16.159948 7.436972 0.048092 0.068823 
